<svg fill="none" height="512" viewBox="0 0 24 24" width="512" xmlns="http://www.w3.org/2000/svg"><g fill="rgb(0,0,0)"><path clip-rule="evenodd" d="m17 3.12853c0-.64309-.5982-1.119-1.2249-.97439l-11.99996 2.76923c-.45373.10471-.77514.50873-.77514.97439v15.10224h-.5c-.27614 0-.5.2239-.5.5s.22386.5.5.5h.99803.00197.00197 4.49803v-3c0-.5523.44772-1 1-1h2c.5523 0 1 .4477 1 1v3h4.498.002.002.498zm-10.5 4.87147c-.27614 0-.5.22386-.5.5v1c0 .27614.22386.5.5.5h1c.27614 0 .5-.22386.5-.5v-1c0-.27614-.22386-.5-.5-.5zm-.5 3.5c0-.2761.22386-.5.5-.5h1c.27614 0 .5.2239.5.5v1c0 .2761-.22386.5-.5.5h-1c-.27614 0-.5-.2239-.5-.5zm.5 2.5c-.27614 0-.5.2239-.5.5v1c0 .2761.22386.5.5.5h1c.27614 0 .5-.2239.5-.5v-1c0-.2761-.22386-.5-.5-.5zm2.5-5.5c0-.27614.22386-.5.5-.5h1c.2761 0 .5.22386.5.5v1c0 .27614-.2239.5-.5.5h-1c-.27614 0-.5-.22386-.5-.5zm.5 2.5c-.27614 0-.5.2239-.5.5v1c0 .2761.22386.5.5.5h1c.2761 0 .5-.2239.5-.5v-1c0-.2761-.2239-.5-.5-.5zm-.5 3.5c0-.2761.22386-.5.5-.5h1c.2761 0 .5.2239.5.5v1c0 .2761-.2239.5-.5.5h-1c-.27614 0-.5-.2239-.5-.5zm3.5-6.5c-.2761 0-.5.22386-.5.5v1c0 .27614.2239.5.5.5h1c.2761 0 .5-.22386.5-.5v-1c0-.27614-.2239-.5-.5-.5zm-.5 3.5c0-.2761.2239-.5.5-.5h1c.2761 0 .5.2239.5.5v1c0 .2761-.2239.5-.5.5h-1c-.2761 0-.5-.2239-.5-.5zm.5 2.5c-.2761 0-.5.2239-.5.5v1c0 .2761.2239.5.5.5h1c.2761 0 .5-.2239.5-.5v-1c0-.2761-.2239-.5-.5-.5z" fill-rule="evenodd"/><path d="m18 5.69099v16.30901h2.4986.0014.0014.9986c.2761 0 .5-.2239.5-.5s-.2239-.5-.5-.5h-.5v-13.19098c0-.37877-.214-.72504-.5528-.89443z"/><path d="m11 22h-2v-3h2z"/></g></svg>