<svg id="Layer_1" enable-background="new 0 0 468 468" height="512" viewBox="0 0 468 468" width="512" xmlns="http://www.w3.org/2000/svg"><g><path d="m117.5 225.5c-33.689 0-61-27.311-61-61 0-33.689 27.311-61 61-61 33.689 0 61 27.311 61 61 0 33.689-27.311 61-61 61z"/><g><path d="m335 189c-38.66 0-70-31.34-70-70 0-38.66 31.34-70 70-70 38.66 0 70 31.34 70 70 0 38.66-31.34 70-70 70z"/><path d="m454 419h-246v-152.538c0-6.402 4.567-11.988 10.769-13.567l63.565-16.158 37.236 79.098c7.214 15.324 29.02 15.304 36.206-.033l37.045-79.065 64.6 16.188c6.228 1.56 10.579 7.159 10.579 13.581v138.494c0 7.732-6.268 14-14 14z"/><g><path d="m56.094 258.559-46.389 15.276c-5.736 1.893-9.705 7.254-9.705 13.296v117.869c0 7.732 6.268 14 14 14h163v-159.221l-43.835 52.46c-7.909 9.466-22.418 9.585-30.482.25z"/></g></g></g></svg>