<svg height="634pt" viewBox="-101 -19 634 634.66669" width="634pt" xmlns="http://www.w3.org/2000/svg"><path d="m202.417969 397.425781-82.5-26.675781v118.40625l82.5 26.671875zm0 0"/><path d="m282.875 358.734375-71.707031-23.125-71.710938 23.125 71.710938 23.125zm0 0"/><path d="m78.753906 595h264.824219c46.175781 0 83.839844-38.046875 83.839844-84.226562v-318.738282c0-4.832031-4.011719-8.285156-8.839844-8.285156h-89.910156v-69.351562c.0625-62.984376-50.847657-114.144532-113.828125-114.398438h-.449219c-62.902344 0-114.472656 51.800781-114.472656 114.691406v69.058594h-96.164063c-4.828125 0-8.835937 3.453125-8.835937 8.285156v318.738282c0 46.179687 37.660156 84.226562 83.835937 84.226562zm38.664063-480.316406c0-53.253906 43.75-97.183594 96.980469-97.183594h.429687c53.332031.242188 96.417969 43.589844 96.339844 96.921875v69.328125h-193.75zm-15 244.050781c-.054688-3.773437 2.351562-7.148437 5.941406-8.324219l100.09375-32.320312c1.738281-.566406 3.605469-.566406 5.34375 0l100.164063 32.320312c3.59375 1.175782 6 4.546875 5.957031 8.324219v136.792969c.046875 3.773437-2.359375 7.148437-5.949219 8.324218l-100.101562 32.320313c-1.734376.566406-3.597657.566406-5.332032 0l-100.160156-32.320313c-3.59375-1.175781-6.003906-4.546874-5.957031-8.324218zm0 0"/><path d="m219.917969 515.828125 82.5-26.671875v-118.40625l-82.5 26.675781zm0 0"/></svg>