<svg id="Icons" height="512" viewBox="0 0 64 64" width="512" xmlns="http://www.w3.org/2000/svg"><circle cx="15" cy="43" r="1"/><path d="m7 50h12a3 3 0 0 0 3-3v-8a3 3 0 0 0 -3-3h-12a3 3 0 0 0 -3 3v8a3 3 0 0 0 3 3zm8-10a3 3 0 1 1 -3 3 3 3 0 0 1 3-3z"/><path d="m55 26h-42a5.006 5.006 0 0 0 -5 5v3h11a5.006 5.006 0 0 1 5 5v8a5.006 5.006 0 0 1 -5 5h-11v3a5.006 5.006 0 0 0 5 5h42a5.006 5.006 0 0 0 5-5v-24a5.006 5.006 0 0 0 -5-5zm-6 30h-6a1 1 0 0 1 0-2h6a1 1 0 0 1 0 2zm6 0h-2a1 1 0 0 1 0-2h2a1 1 0 0 1 0 2z"/><path d="m15.113 24h9.433a74.218 74.218 0 0 0 6.621-8.552 73.569 73.569 0 0 0 4.159-7.161l-10.271-2.261a1.343 1.343 0 0 0 -.789.056.867.867 0 0 0 -.242.155.846.846 0 0 0 -.213.317 45.175 45.175 0 0 1 -1.377 4.481c-.209.572-.874 2.345-1.877 4.4a46.146 46.146 0 0 1 -5.444 8.565z"/><path d="m53.268 24c3.667-6.3 6.286-10.929 6.6-11.671a1.2 1.2 0 0 0 .075-.873 1.06 1.06 0 0 0 -.631-.629l-18.74-6.768a1.08 1.08 0 0 0 -1.211.365 76.089 76.089 0 0 1 -6.526 12.128 76.065 76.065 0 0 1 -5.635 7.448z"/></svg>