<svg id="Layer_1" height="512" viewBox="0 0 512 512" width="512" xmlns="http://www.w3.org/2000/svg" data-name="Layer 1"><path d="m97.33 21.55h317.34v106.72h-317.34z" fill="#fedb41"/><path d="m345.07 314.01a110.619 110.619 0 1 1 -25.62-24.99 110.12 110.12 0 0 1 25.62 24.99zm-15.25 65.73a73.82 73.82 0 1 0 -73.82 73.83 73.82 73.82 0 0 0 73.82-73.83z" fill="#00acea"/><path d="m345.15 256.64v57.31l-.08.06a110.91 110.91 0 0 0 -25.62-24.99l.02-.03v-32.35a63.47 63.47 0 0 0 -126.94 0v32.35l.02.03a110.91 110.91 0 0 0 -25.62 24.99l-.08-.06v-57.31a89.15 89.15 0 0 1 178.3 0z" fill="#00efd1"/><path d="m255 391.65c.33.03.66.04 1 .04a12.541 12.541 0 1 0 -1-.04zm1-85.73a73.825 73.825 0 1 1 -73.82 73.82 73.82 73.82 0 0 1 73.82-73.82z" fill="#00efd1"/><path d="m255 391.65a12.539 12.539 0 1 1 1 .04c-.34 0-.67-.01-1-.04z" fill="#00acea"/><g fill="#083863"><path d="m420 22a6 6 0 0 0 -6-6h-317a6 6 0 0 0 -6 6v107a6 6 0 0 0 6 6h317a6 6 0 0 0 6-6zm-11 100h-306v-94h306z"/><path d="m247.514 75.275-15.567 15.562a6 6 0 0 0 8.487 8.486l15.566-15.563 15.566 15.563a6 6 0 0 0 8.487-8.486l-15.567-15.562 16.3-16.291a6 6 0 1 0 -8.486-8.484l-16.3 16.291-16.3-16.291a6 6 0 1 0 -8.482 8.487z"/><path d="m164.521 75.277-15.562 15.559a6 6 0 1 0 8.482 8.488l15.566-15.562 15.559 15.561a6 6 0 0 0 8.487-8.486l-15.56-15.559 16.3-16.3a6 6 0 1 0 -8.484-8.485l-16.3 16.3-16.3-16.3a6 6 0 1 0 -8.484 8.485z"/><path d="m330.507 75.278-15.56 15.559a6 6 0 0 0 8.487 8.486l15.559-15.561 15.566 15.562a6 6 0 0 0 8.482-8.488l-15.562-15.559 16.293-16.294a6 6 0 1 0 -8.484-8.485l-16.3 16.3-16.3-16.3a6 6 0 1 0 -8.484 8.485z"/><path d="m256 299.92a79.825 79.825 0 1 0 79.82 79.82 79.91 79.91 0 0 0 -79.82-79.82zm0 147.65a67.825 67.825 0 1 1 67.82-67.83 67.9 67.9 0 0 1 -67.82 67.83z"/><path d="m256 360.6a18.54 18.54 0 0 0 -7 35.707v10.693a6 6 0 0 0 12 0v-10.014a18.536 18.536 0 0 0 -5-36.386zm1.444 24.924a5.9 5.9 0 0 0 -3.928-.331 6.537 6.537 0 1 1 3.928.331z"/><path d="m256 161.49a95.129 95.129 0 0 0 -95 95.15v55.572a116.6 116.6 0 0 0 95.038 184.238c64.348 0 116.606-52.356 116.606-116.71a116.4 116.4 0 0 0 -21.644-67.528v-55.572a95.129 95.129 0 0 0 -95-95.15zm0 12a83.116 83.116 0 0 1 83 83.15v41.247a95.915 95.915 0 0 0 -14-11.9v-29.347c0-38.306-30.694-69.47-69-69.47s-69 31.164-69 69.47v29.349a95.976 95.976 0 0 0 -14 11.9v-41.249a83.116 83.116 0 0 1 83-83.15zm57 104.683a114.915 114.915 0 0 0 -114 0v-21.533a57 57 0 1 1 114 0zm-57 206.277a104.824 104.824 0 0 1 -104.7-104.71 104.689 104.689 0 0 1 188.942-62.168v.007a103.765 103.765 0 0 1 20.458 62.161 104.824 104.824 0 0 1 -104.7 104.71z"/></g></svg>