<svg xmlns="http://www.w3.org/2000/svg" xmlns:xlink="http://www.w3.org/1999/xlink" width="840" height="480" fill="none" xmlns:v="https://vecta.io/nano"><style><![CDATA[.H{fill:#f09959}.I{fill:#fff}.J{fill:#99bbeb}.K{fill:#9ec8ff}.L{fill:#e38540}.M{fill:#d54a41}.N{fill:#2e5b9a}]]></style><g clip-path="url(#A)"><path d="M160.862 68.342c99.705-37.013 201.052-4.285 269.8 66.994 34.37 35.648 87.644 23.328 141.885 11.007C626.744 134.04 681.9 121.72 720.142 157.3c52.202 48.573 28.304 173.438-43.286 227.506-97.303 73.5-393.22 36.22-457.226 23.708-73.75-14.4-127.664-58.147-149.557-111.213C17.3 169.412 116.816 84.706 160.88 68.342h-.018z" fill="#e7f3fe"/><path d="M420.337 142.697c-17.73 0-32.106-14.377-32.106-32.106s14.377-32.106 32.106-32.106 32.106 14.377 32.106 32.106-14.377 32.106-32.106 32.106zm81.336-22.913c.346-3.024.52-6.082.52-9.193a76.38 76.38 0 0 0-.156-4.89l-15.2-4.908a66.7 66.7 0 0 0-5.374-18.195l10.074-12.4a81.2 81.2 0 0 0-7.983-11.595l-15.2 4.96a67.67 67.67 0 0 0-15.034-11.56l.864-15.95c-4.233-1.935-8.674-3.508-13.253-4.7l-9.383 12.943c-3.663-.622-7.413-.933-11.25-.933a67.18 67.18 0 0 0-7.724.449l-8.675-13.426c-4.648.95-9.158 2.28-13.496 3.992l.018 15.984A66.79 66.79 0 0 0 374.82 61.11l-14.896-5.754a81.84 81.84 0 0 0-8.588 11.163l9.4 12.908a67.37 67.37 0 0 0-6.342 17.885l-15.414 4.096a80.94 80.94 0 0 0-.518 9.192 77.15 77.15 0 0 0 .155 4.891l15.2 4.907a66.52 66.52 0 0 0 5.374 18.196l-10.074 12.4c2.333 4.096 4.994 7.984 7.984 11.595l15.2-4.96c4.423 4.527 9.486 8.415 15.033 11.56l-.864 15.95a80.98 80.98 0 0 0 13.254 4.701l9.383-12.943a67.03 67.03 0 0 0 11.232.933c2.6 0 5.184-.155 7.724-.45l8.674 13.426c4.65-.95 9.16-2.28 13.496-4l-.017-15.984a66.85 66.85 0 0 0 15.621-10.748l14.895 5.754a81.9 81.9 0 0 0 8.588-11.163l-9.4-12.908a67.33 67.33 0 0 0 6.341-17.885l15.414-4.095h.017z" class="K"/><g class="I"><path d="M464.124 147.207c-.276 0-.536-.086-.76-.276a1.19 1.19 0 0 1-.156-1.694c8.07-9.694 12.5-22.014 12.5-34.646 0-6.048-.985-11.992-2.938-17.66a1.19 1.19 0 0 1 .743-1.521c.623-.207 1.314.12 1.52.743a56.55 56.55 0 0 1 3.076 18.455c0 13.202-4.648 26.058-13.064 36.184-.242.294-.587.432-.916.432l-.017-.017zm-4.648-75.8c-.294 0-.588-.104-.812-.328-5.426-5.097-11.7-8.968-18.663-11.508-.622-.225-.95-.916-.725-1.538s.916-.95 1.538-.726c7.274 2.644 13.824 6.687 19.5 12a1.2 1.2 0 0 1 .052 1.693 1.18 1.18 0 0 1-.881.38v.017zm-51.58-13.375a1.2 1.2 0 0 1-1.157-.899c-.156-.64.224-1.296.864-1.452 4.527-1.14 9.193-1.7 13.893-1.7.656 0 1.192.536 1.192 1.192s-.536 1.192-1.192 1.192c-4.5 0-8.986.553-13.323 1.642-.104.017-.2.035-.294.035h.017z"/></g><path d="M187.3 338.945a22.24 22.24 0 1 1 22.24-22.239 22.24 22.24 0 0 1-22.239 22.24zm56.332-15.88a55.33 55.33 0 0 0 .363-6.36 55.12 55.12 0 0 0-.104-3.387l-10.523-3.404a45.41 45.41 0 0 0-3.733-12.597l6.98-8.588c-1.607-2.834-3.456-5.53-5.53-8.035l-10.524 3.44c-3.058-3.128-6.566-5.84-10.42-8l.604-11.06a56.25 56.25 0 0 0-9.175-3.249l-6.498 8.97a46.35 46.35 0 0 0-7.793-.657 45.54 45.54 0 0 0-5.34.31l-6.014-9.296a57.16 57.16 0 0 0-9.348 2.764l.017 11.077c-3.957 1.97-7.603 4.475-10.817 7.447l-10.316-3.974c-2.195 2.402-4.182 4.977-5.944 7.724l6.514 8.934c-2.022 3.853-3.508 8-4.4 12.4l-10.68 2.834a55.35 55.35 0 0 0-.363 6.359 55.07 55.07 0 0 0 .104 3.387l10.523 3.404a45.4 45.4 0 0 0 3.733 12.597l-6.98 8.588a55.69 55.69 0 0 0 5.53 8.036l10.524-3.44c3.058 3.128 6.566 5.84 10.42 8l-.605 11.06c2.937 1.33 6.013 2.436 9.175 3.248l6.498-8.968a46.19 46.19 0 0 0 7.793.657 45.54 45.54 0 0 0 5.34-.31l6.014 9.296c3.214-.657 6.34-1.6 9.348-2.765l-.017-11.076c3.957-1.97 7.603-4.476 10.817-7.448l10.316 3.975c2.195-2.402 4.182-4.977 5.944-7.724l-6.514-8.95c2.022-3.837 3.508-8 4.4-12.4l10.68-2.85v.034z" class="K"/><g class="I"><path d="M217.627 342.435a1.15 1.15 0 0 1-.761-.276c-.5-.432-.587-1.175-.155-1.694a37.24 37.24 0 0 0 8.588-23.76c0-4.147-.674-8.225-2.022-12.113-.207-.622.12-1.313.743-1.52s1.314.12 1.52.743c1.434 4.147 2.143 8.484 2.143 12.908 0 9.227-3.25 18.213-9.14 25.297-.242.294-.588.432-.916.432v-.017zm-3.214-52.495a1.2 1.2 0 0 1-.83-.33 37.14 37.14 0 0 0-12.804-7.896c-.622-.225-.95-.916-.726-1.538s.916-.95 1.538-.726c5.08 1.85 9.677 4.665 13.634 8.398a1.2 1.2 0 0 1 .052 1.693c-.242.26-.553.38-.882.38l.018.017zm-35.735-9.263c-.536 0-1.02-.363-1.158-.916-.155-.64.225-1.296.864-1.452a39.91 39.91 0 0 1 9.711-1.209c.657 0 1.193.536 1.193 1.192s-.536 1.192-1.193 1.192a37.42 37.42 0 0 0-9.123 1.124c-.104.034-.2.034-.294.034v.035z"/></g><path d="M516.655 195.764a14.2 14.2 0 0 1-14.187-14.187 14.2 14.2 0 0 1 14.187-14.187 14.2 14.2 0 0 1 14.187 14.187 14.2 14.2 0 0 1-14.187 14.187zm34.04-14.844l-.05-1.85 7.88-6.324a42.26 42.26 0 0 0-2.868-9.055l-10.178-.777a33.91 33.91 0 0 0-8.813-9.35l-.034-10.143c-2.834-1.486-5.858-2.66-9.02-3.473l-6.964 7.482a36.26 36.26 0 0 0-3.646-.19c-3.06 0-6.03.414-8.865 1.175l-7.983-6.325a42.59 42.59 0 0 0-8.433 4.891l1.504 10.056a33.64 33.64 0 0 0-7.102 10.368l-9.92 2.3a42.52 42.52 0 0 0-1.469 9.555l8.744 5.046a33.71 33.71 0 0 0 3.732 12.355l-4.372 9.158c1.884 2.558 4.027 4.908 6.428 7l9.366-3.664c3.68 2.402 7.862 4.096 12.355 4.908l4.424 9.1 1.6.035c2.643 0 5.235-.242 7.74-.7l2.972-9.625c4.337-1.45 8.277-3.784 11.63-6.756l9.85 2.212c2.022-2.368 3.784-4.977 5.253-7.742l-5.702-8.38a33.77 33.77 0 0 0 1.935-11.267h.017z" class="K"/><path d="M722.13 414.06c-49.904-2.436-219.714 1.693-271.346 3.3s-111.576-2.125-142.714-7.62-211.126.467-202.953 15.24 80.196 6.618 161.86 12.545c81.682 5.944 265.367-.743 306.804 0s79.436-1.486 132.83-4.458 44.46-17.608 15.517-19.025v.017z" fill="#cce2ff"/><path d="M107.623 276.046H211.96v-171.02H107.623v171.02z" class="J"/><path d="M113.083 269.514H208.52V108.5H113.083V269.514Z" class="I"/><path d="M141.63 173.075c3.594-7.724 9.676-10.195 19.664-10.195 11.9 0 18.058 4.303 19.803 10.575-21.3.294-39.467-.38-39.467-.38z" fill="#9bd6e8"/><path d="M157.13 125.28c-5.03 1.417-4.804 4.234-6.497 6.86-1.677 2.627-5.323 4.372-5.755 6.117s1.124 5.392-.725 7.43-2.47 3.058-1.746 5.097 2.333 5.253 2.47 5.685 2.195 3.508 4.666 3.94 7.137 1.175 9.47 2.195 9.833-1.314 13.997-1.158c4.165.138 6.998-2.92 6.705-4.96s3.075-6.117 3.058-9.624c0-3.75-4.372-6.567-5.547-9.038-1.157-2.47.14-6.86-4.233-9.452-2.765-1.64-4.666-1.486-6.86-2.23-2.195-.726-5.84-1.78-9.038-.88l.035.017z" fill="#3a384d"/><path d="M163.264 169.032c-1.14 1.676-1.97 1.745-3.214 0-.985-1.4-2.92-4.545-2.92-6.152v-16a2.93 2.93 0 0 1 2.92-2.92h3.214a2.93 2.93 0 0 1 2.92 2.92v16c0 1.607-1.9 4.648-2.92 6.152z" class="H"/><path d="M163.264 143.96h-3.214a2.93 2.93 0 0 0-2.92 2.92v14.3c3.594 1.14 6.895-1.14 9.037-3.698v-10.575a2.93 2.93 0 0 0-2.92-2.92l.017-.017z" class="L"/><path d="M171.35 144.114c0 7.292-4.337 13.22-9.694 13.22s-9.694-5.9-9.694-13.22c0-7.292 4.337-13.22 9.694-13.22s9.694 5.9 9.694 13.22z" class="H"/><path d="M166.185 133.608c-6.118 10.35-15.172 9.33-15.172 9.33s.224-13.703 7.396-14.43c7.188-.725 11.404 2.16 12.873 6.912 1.452 4.752 0 7.897 0 7.897s-2.333-1.814-3.5-4.735c-1.175-2.92-1.607-4.96-1.607-4.96v-.017z" fill="#3a384d"/><g class="H"><path d="M152.948 143.924c.9 1.918.605 3.94-.657 4.545-1.278.604-3.04-.45-3.94-2.368s-.605-3.94.656-4.544c1.28-.605 3.04.45 3.94 2.367zm16.97 0c-.9 1.918-.605 3.94.657 4.545 1.278.604 3.04-.45 3.94-2.368s.605-3.94-.656-4.544c-1.28-.605-3.04.45-3.94 2.367z"/></g><path d="M165.303 151.285s-1.624 2.108-3.646 2.108-3.646-2.108-3.646-2.108h7.292z" class="I"/><g class="J"><path d="M173.2 194.036h-24.486c-1.572 0-2.85-1.28-2.85-2.852s1.28-2.85 2.85-2.85H173.2c1.573 0 2.85 1.28 2.85 2.85s-1.278 2.852-2.85 2.852zm4.476 8.744h-33.454c-1.573 0-2.85-1.28-2.85-2.85s1.278-2.85 2.85-2.85h33.454c1.572 0 2.85 1.28 2.85 2.85s-1.28 2.85-2.85 2.85z"/><use xlink:href="#B"/><use xlink:href="#C"/><path d="M201.643 249.608h-81.37a1.66 1.66 0 0 1-1.659-1.659 1.67 1.67 0 0 1 1.659-1.659h81.37a1.66 1.66 0 0 1 1.659 1.659 1.66 1.66 0 0 1-1.659 1.659zm-70-132.158a.57.57 0 0 0-.553.553v54.017a.57.57 0 0 0 .553.553h58.613a.57.57 0 0 0 .553-.553v-54.017a.57.57 0 0 0-.553-.553h-58.613zm58.613 57.525h-58.613c-1.624 0-2.955-1.33-2.955-2.955v-54.017c0-1.624 1.33-2.955 2.955-2.955h58.613c1.625 0 2.955 1.33 2.955 2.955v54.017c0 1.624-1.33 2.955-2.955 2.955zM140.1 210.2l1.694 3.438 3.8.553-2.747 2.68.64 3.784-3.387-1.797-3.404 1.797.657-3.784-2.748-2.68 3.802-.553 1.693-3.438zm13.892 0l1.694 3.438 3.8.553-2.747 2.68.656 3.784-3.404-1.797-3.387 1.797.64-3.784-2.748-2.68 3.802-.553L154 210.2zm13.9 0l1.694 3.438 3.784.553-2.73 2.68.64 3.784-3.387-1.797-3.404 1.797.657-3.784-2.748-2.68 3.785-.553 1.7-3.438zm13.894 0l1.693 3.438 3.802.553-2.748 2.68.64 3.784-3.386-1.797-3.387 1.797.64-3.784-2.747-2.68 3.8-.553 1.694-3.438zm158.42 65.846h104.336v-171.02H340.227v171.02z"/></g><path d="M345.688 269.514h95.454V108.5h-95.454v161.014z" class="I"/><path d="M378.78 143.25c0 7.655 4.614 20.027 15.483 19.63 10.886-.397 13.288-12.182 13.703-15.5s-29.203-4.113-29.203-4.113l.017-.017z" fill="#7a4e34"/><path d="M374.234 173.075c3.594-7.724 9.677-10.195 19.665-10.195 11.888 0 18.057 4.303 19.802 10.575-21.288.294-39.467-.38-39.467-.38z" class="M"/><path d="M395.87 169.032c-1.14 1.676-1.97 1.745-3.214 0-.985-1.4-2.92-4.545-2.92-6.152v-16a2.93 2.93 0 0 1 2.921-2.92h3.214a2.93 2.93 0 0 1 2.92 2.92v16c0 1.607-1.9 4.648-2.92 6.152z" class="H"/><path d="M395.87 143.96h-3.214a2.93 2.93 0 0 0-2.921 2.92v14.3c3.595 1.14 6.895-1.14 9.038-3.698v-10.575a2.93 2.93 0 0 0-2.921-2.92l.018-.017z" class="L"/><path d="M403.956 144.114c0 7.292-4.338 13.22-9.694 13.22s-9.694-5.9-9.694-13.22c0-7.292 4.337-13.22 9.694-13.22s9.694 5.9 9.694 13.22z" class="H"/><path d="M399.6 134.074c-1.158 4.06-3.68 4-7.188 5.357-3.525 1.33-5.202 2.68-6.36 5.27-1.47 3.317.674 12.977.674 12.977s-8.917-6.67-7.88-17.16 7.223-14.55 13.046-14.55 8.035 3.543 8.035 3.543 3.094.017 6.03 3.5c3.94 4.666 2.73 16.02 0 20.08s-4.544 5.34-4.493 5.15 2.54-9.52 1.2-15.276c-1.33-5.77-3.06-8.864-3.06-8.864l-.017-.018z" fill="#7a4e34"/><path d="M397.908 151.285s-1.625 2.108-3.646 2.108c-2.005 0-3.646-2.108-3.646-2.108h7.292z" class="I"/><g class="J"><path d="M405.805 194.036H381.32c-1.572 0-2.85-1.28-2.85-2.852s1.28-2.85 2.85-2.85h24.486c1.572 0 2.85 1.28 2.85 2.85a2.86 2.86 0 0 1-2.85 2.852zm4.492 8.744h-33.454c-1.572 0-2.85-1.28-2.85-2.85s1.28-2.85 2.85-2.85h33.454c1.573 0 2.85 1.28 2.85 2.85s-1.278 2.85-2.85 2.85zm23.95 31.466h-81.37a1.66 1.66 0 0 1-1.659-1.659 1.66 1.66 0 0 1 1.659-1.659h81.37a1.66 1.66 0 0 1 1.659 1.659 1.66 1.66 0 0 1-1.659 1.659zm0 7.672h-81.37a1.66 1.66 0 0 1-1.659-1.659 1.66 1.66 0 0 1 1.659-1.659h81.37a1.66 1.66 0 0 1 1.659 1.659 1.67 1.67 0 0 1-1.659 1.659zm0 7.7h-81.37a1.66 1.66 0 0 1-1.659-1.659c0-.9.744-1.66 1.66-1.66h81.37a1.66 1.66 0 0 1 1.659 1.659 1.66 1.66 0 0 1-1.659 1.659zM364.264 117.45a.57.57 0 0 0-.553.553v54.017a.57.57 0 0 0 .553.553h58.613a.57.57 0 0 0 .553-.553v-54.017a.57.57 0 0 0-.553-.553h-58.613zm58.613 57.525h-58.613c-1.625 0-2.955-1.33-2.955-2.955v-54.017c0-1.624 1.33-2.955 2.955-2.955h58.613c1.624 0 2.955 1.33 2.955 2.955v54.017c0 1.624-1.33 2.955-2.955 2.955zM372.714 210.2l1.693 3.438 3.802.553-2.748 2.68.657 3.784-3.404-1.797-3.387 1.797.64-3.784-2.747-2.68 3.8-.553 1.694-3.438zm13.9 0l1.693 3.438 3.785.553-2.748 2.68.657 3.784-3.387-1.797-3.404 1.797.656-3.784-2.747-2.68 3.784-.553 1.7-3.438zm13.893 0l1.693 3.438 3.802.553-2.748 2.68.64 3.784-3.387-1.797-3.387 1.797.64-3.784-2.747-2.68 3.802-.553 1.693-3.438zm13.883 0l1.7 3.438 3.784.553-2.748 2.68.657 3.784-3.404-1.797-3.387 1.797.64-3.784-2.747-2.68 3.802-.553 1.693-3.438z"/></g><path d="M340.227 274.335H211.96v-168.67h126.68l-.156 4.925.156 4.9 1.6.52v158.335z" fill="#d7e8fa"/><path d="M340.227 115.982l-1.6-.518-.156-4.9.156-4.925h1.6v10.333z" fill="#9dc5fb"/><path d="M211.96 274.335H187.3l.33-4.82h20.9V108.5h-9.78l.207-2.834h13.012v168.67z" class="J"/><path d="M208.52 269.514h-20.9l1.382-19.924h12.65a1.66 1.66 0 0 0 1.659-1.659 1.67 1.67 0 0 0-1.659-1.658h-12.407l.294-4.372h12.113a1.66 1.66 0 0 0 1.659-1.659 1.66 1.66 0 0 0-1.659-1.659h-11.9l.294-4.372h11.578a1.66 1.66 0 0 0 1.659-1.659 1.66 1.66 0 0 0-1.659-1.658H190.3l8.45-122.428h9.78v161.048z" fill="#ebf1fb"/><g class="J"><path d="M201.643 234.246h-11.578l.225-3.3h11.353a1.66 1.66 0 0 1 1.659 1.659 1.66 1.66 0 0 1-1.659 1.659v-.017zm0 7.672H189.53l.224-3.3h11.9a1.66 1.66 0 0 1 1.659 1.658 1.67 1.67 0 0 1-1.659 1.659v-.017zm0 7.7h-12.65l.225-3.3h12.407a1.66 1.66 0 0 1 1.658 1.659 1.66 1.66 0 0 1-1.658 1.659l.017-.017zm150.317 24.727h-11.733v-168.67h17.678l-.104 2.834h-12.113v161.014h6.445l-.173 4.82z"/></g><path d="M352.133 269.514h-6.428V108.5H357.8l-4.303 122.428h-.604a1.66 1.66 0 0 0-1.659 1.659 1.66 1.66 0 0 0 1.659 1.659h.483l-.155 4.372h-.328a1.66 1.66 0 0 0-1.659 1.658 1.67 1.67 0 0 0 1.659 1.659h.224l-.155 4.372h-.07a1.66 1.66 0 0 0-1.659 1.659c0 .9.726 1.624 1.607 1.66l-.7 19.9z" fill="#ebf1fb"/><g class="J"><path d="M353.377 234.246h-.483a1.66 1.66 0 0 1-1.659-1.659 1.66 1.66 0 0 1 1.659-1.659h.604l-.12 3.318zm-.277 7.672h-.225a1.66 1.66 0 0 1-1.659-1.659 1.66 1.66 0 0 1 1.659-1.659h.33l-.12 3.3.017.017zm-.275 7.7c-.882-.018-1.608-.76-1.608-1.66s.744-1.66 1.66-1.66h.07l-.12 3.318zm-148.227 57.714h142.507V73.733H204.598v233.6z"/></g><path d="M212.063 298.423h130.36V78.502h-130.36v219.92z" class="I"/><path d="M265.095 124.7c-.087-.276-2.368-13.374-2.644-18.472s8.2-5.823 8.2-5.823 6.912-3.733 11.923-1.814 8.416 5.132 10.68 9.123c2.28 4-2.004 16.485-2.004 16.485l-26.144.5z" fill="#2e2d3d"/><path d="M249.404 166.785c-.034-.207.588-5.374.605-5.58 1.158-10.852 14.533-13.9 27.9-13.9 15.7 0 26.334 2.868 28.028 14.152.052.328.95 5.495.916 5.84-29.082.398-57.44-.518-57.44-.518v.017z" fill="#d5e1e8"/><path d="M280.595 155.726c-1.556 2.298-2.696 2.385-4.4 0-1.347-1.9-5.823-6.238-5.823-8.432l1.832-21.842a3.99 3.99 0 0 1 3.974-3.975h4.4c2.195 0 3.992 1.798 3.992 3.975l.847 21.842c0 2.194-3.44 6.376-4.84 8.432h.018z" class="H"/><path d="M280.595 121.46h-4.4a3.99 3.99 0 0 0-3.974 3.975l-1.6 19.388c4.925 1.572 11.56-1.625 14.498-5.133l-.553-14.255c0-2.195-1.797-3.975-4-3.975z" class="L"/><path d="M263.367 148.883l7.032 12.977s3.75-3.093 4.13-2.488c.363.605-.674 8.26-.674 8.26l8.727-.242c.363-.363-1.694-8.312-.847-8.312s3.404 2.3 3.404 2.3l7.845-12.494-1.728-.414-12.856 6.912-13.737-6.757-1.296.277v-.018z" fill="#bdccd4"/><path d="M271.402 154.862l5.218 3.508-1.624 9.297 7.033-.398-1.763-8.45 4.338-3.957-2.04-1.9h-9.142l-2.02 1.9z" class="M"/><path d="M270.745 142.524l-6.445 6.135s6.566 11.698 6.93 11.698 5.58-6.445 5.58-6.445l3.335-.052 5.27 5.53 6.134-10.834-6.255-6.618s-5.34 10.316-6.307 10.558-.985.363-1.763-.242-6.48-9.7-6.48-9.7v-.018z" fill="#d5e1e8"/><g class="H"><path d="M291.636 121.685c0 9.97-5.927 18.04-13.253 18.04-7.3 0-13.237-8.087-13.237-18.04 0-9.97 5.927-18.04 13.237-18.04s13.253 8.087 13.253 18.04z"/><path d="M266.5 121.408c1.245 2.6.83 5.392-.898 6.22-1.745.83-4.147-.622-5.4-3.23s-.83-5.392.898-6.22c1.745-.83 4.147.622 5.4 3.23zm23.174 0c-1.244 2.6-.83 5.392.898 6.22 1.746.83 4.147-.622 5.392-3.23s.83-5.392-.9-6.22c-1.745-.83-4.147.622-5.4 3.23z"/></g><path d="M284.275 129.098s-2.626 4.268-5.875 4.268-5.875-4.268-5.875-4.268h11.75z" class="I"/><g fill="#2e2d3d"><path d="M270.624 109.416c5.46-3.82 7.914-3.18 12 3.093s9.002 6.394 9.002 6.394l.64-6.515s-6.1-11.802-14.3-10.247-12.84 8.917-12.84 8.917-.397 13.806.743 14.3c1.14.467 1.28-4.458 2.1-5.46.83-1.003-.812-5.737.277-7.914s2.367-2.54 2.367-2.54v-.017z"/><path d="M288.18 116.5c1.9 2.1 1.175 10.368 2.178 10.28s1.365-7.914 1.088-8.726-3.283-1.555-3.283-1.555h.017z"/></g><g class="J"><path d="M307.862 195.314H247.02c-2.143 0-3.888-1.745-3.888-3.888s1.745-3.888 3.888-3.888h60.842c2.143 0 3.888 1.746 3.888 3.888s-1.745 3.888-3.888 3.888zm-7.568 11.958h-45.688c-2.143 0-3.888-1.745-3.888-3.888s1.745-3.888 3.888-3.888h45.688c2.142 0 3.888 1.745 3.888 3.888s-1.746 3.888-3.888 3.888z"/><use xlink:href="#D"/><path d="M333.022 260.72H221.877c-1.244 0-2.263-1.02-2.263-2.264s1.02-2.264 2.263-2.264h111.145c1.244 0 2.263 1.02 2.263 2.264s-1.02 2.264-2.263 2.264zm0 10.487H221.877a2.27 2.27 0 0 1-2.263-2.263c0-1.244 1.02-2.264 2.263-2.264h111.145c1.244 0 2.263 1.02 2.263 2.264a2.27 2.27 0 0 1-2.263 2.263zm-95.6-180.937c-.656 0-1.192.536-1.192 1.192v73.785c0 .657.536 1.193 1.192 1.193h80.058c.656 0 1.192-.536 1.192-1.193V91.462c0-.657-.536-1.192-1.192-1.192h-80.058zm80.058 78.572h-80.058a3.59 3.59 0 0 1-3.594-3.595V91.462a3.59 3.59 0 0 1 3.594-3.594h80.058a3.59 3.59 0 0 1 3.594 3.594v73.785a3.59 3.59 0 0 1-3.594 3.595zm-78.14 48.573l2.316 4.683 5.184.76-3.75 3.664.88 5.15-4.63-2.436-4.648 2.436.898-5.15-3.75-3.664 5.166-.76 2.333-4.683zm18.974 0l2.315 4.683 5.184.76-3.75 3.664.9 5.15-4.648-2.436-4.63 2.436.88-5.15-3.75-3.664 5.184-.76 2.316-4.683zm19 0l2.316 4.683 5.184.76-3.75 3.664.88 5.15-4.63-2.436-4.63 2.436.88-5.15-3.75-3.664 5.184-.76 2.315-4.683zm19 0l2.315 4.683 5.184.76-3.75 3.664.882 5.15-4.63-2.436-4.65 2.436.882-5.15-3.75-3.664 5.184-.76 2.333-4.683zm19.285 0l2.316 4.683 5.183.76-3.75 3.664.88 5.15-4.63-2.436-4.648 2.436.898-5.15-3.75-3.664 5.166-.76 2.333-4.683z"/></g><path d="M575.977 299.806H393.104a1.99 1.99 0 0 1-1.987-1.988v-3c0-1.106.88-1.987 1.987-1.987h182.873c1.106 0 1.987.898 1.987 1.987v3c0 1.106-.88 1.988-1.987 1.988z" class="N"/><g class="H"><path d="M623.065 199.53c2.47 8.726-3.577 17.73-10.23 19.63-6.67 1.884-11.422-4.043-13.9-12.787-2.47-8.743.915-17.35 7.585-19.232s14.084 3.663 16.555 12.4zm-37.377 169.274s17.1 26.542 19.388 27.682c2.316 1.158 8.087 1.435 5.9 5.772-2.16 4.32-3.024 21.34-5.046 22.205s-19.32 2.885-16.727 0 4.2-1.435 5.495-6.636c1.313-5.184 3.145-15 .7-17.02s-17.452-20.182-17.452-20.182l7.724-11.82h.017zM499.703 380.2s-20.77 34.23-24.606 37.307c-3.854 3.076-16.537 7.7-6.152 8.467s15.38-3.456 21.928-5.4c6.532-1.918 14.62-3.076 11.543-8.07s-1.797-15.915 4.84-22.844-7.534-9.47-7.534-9.47h-.018z"/></g><path d="M605.68 300.825s-51.408-1.348-71.798 15.38c-11.923 18.075-40.763 71.418-43 77.293 1.538 1.538 10.196 4.32 14.05 3.923 11.353-13.53 26.335-25.23 32.313-35.84 7.344-13.08 9.608-19.613 21.53-20.77s38.845-4.994 46.915-4.994c8.087 0 0-34.992 0-34.992z" fill="#6791c9"/><g class="N"><path d="M650.522 426.07h-2.695L628.5 345.442h5.927l16.105 80.628zm-80.732 0h2.695l22.17-83.48h-5.927L569.8 426.07z"/></g><path d="M634.97 297.3l-29.894 5.167s-39.726.363-57.87 3.75c-16.52 3.076-18.956 21.842 0 47.693 10.765 14.688 19.872 26.386 38.482 39.605 4.735-3.473 6.55-4.786 7.863-13.15-1.348-1.85-4.84-13.4-5.9-15.673-10.3-21.53-24.036-29.34-24.227-31.466 2.316-3.75 61.12 19.543 72.818 5.84 11.163-13.08-1.244-41.748-1.244-41.748l-.018-.017z" fill="#75a1de"/><path d="M636.215 229.632c-7.88-1.106-15.898.398-23.38 5.823-6.55 6.688-13.962 17.695-13.513 35.856.57 23.07-3.577 24.555.76 30.897 18.04 7.447 48.902 39.467 41.645 5.15-5.27-24.85 11.543-43.373-2.022-70.95-1.106-2.247-2.47-4.424-3.473-6.774h-.017z" fill="#f37168"/><path d="M599.305 280.003c-.346 12.027-2.057 15.57-.743 19.353 7.344.743 20.822 3.698 24.174 8.398 3.854 5.392 7.7 6.152 5.893 2.178s-6.532-9.608.76-28.98c7.3-19.353 10.765-32.434 3.594-45.895l-33.678 44.945z" class="M"/><path d="M636.214 229.632c-4.838-11.474-6.03-24.365-6.03-24.365l-12.7 3.75s7.223 16.157.294 21.928c-1.47 1.227-3.18 2.713-4.942 4.5 7.5-5.425 15.517-6.93 23.38-5.823z" class="H"/><path d="M630.564 208.326l-2.678-2.385-10.35 3.06-.017.052c.26.57 2.885 6.722 3.23 12.65 3.076-1.867 6.463-4.925 10.316-10.247-.207-1.175-.38-2.23-.5-3.128z" class="L"/><path d="M627.298 233.244c-13.08 4.58-11.63 18.333-23.656 38.655-6.238 10.506-12 10.35-12 10.35s-14.6.12-32.26-2.04c-11.06-1.348-11.768 1.936-4.078 4.683 15.517 5.547 31.605 11.526 44.582 10.074 12.994-1.434 35.182-34.56 36.322-43.182 1.6-11.923-2.333-20.84-8.916-18.54h.017z" class="H"/><path d="M620.56 348.794c-.812 0-1.642-.017-2.506-.035-10.644-.26-17.902-1.728-23.725-2.92-6.808-1.382-10.558-2.143-14.912-.052a3.36 3.36 0 0 1-4.476-1.589c-.795-1.677-.086-3.68 1.573-4.476 6.393-3.058 11.75-1.97 19.146-.466 5.564 1.14 12.493 2.54 22.567 2.782 11.267.276 18.127-1.383 21.6-5.253 3.1-3.44 4-9.2 2.85-18.18l-1.14-7.88c-.985-6.36-1.625-10.558-.83-17.037.743-6.03 2.73-14.05 7.36-29.6.52-1.78 2.402-2.8 4.182-2.263a3.36 3.36 0 0 1 2.264 4.181c-8.605 28.996-8.174 31.812-6.342 43.7l1.158 8.035c1.417 11.06-.017 18.54-4.527 23.535-4.65 5.15-12.183 7.5-24.26 7.5l.017.017z" class="N"/><g class="M"><path d="M501.103 409.05c-13.8 6.74-21.202 10.6-25.626 10.23-1.037-.087-1.9-.2-2.627-.3-4.907 2.903-12.752 6.34-3.94 6.998 10.385.777 15.38-3.456 21.928-5.4 6.532-1.92 14.62-3.076 11.543-8.07-.588-.95-1.02-2.126-1.28-3.456zm105.477-11.993c-.345 10.903-1.83 21.72-8.5 23.76-1.763.536-3.387.623-4.804.432-1.054 1.296-2.333 1.314-4.044 3.215-2.592 2.885 14.706.864 16.727 0s2.886-17.885 5.046-22.205c1.78-3.56-1.797-4.4-4.406-5.2h-.018z"/></g><path d="M553.496 293.8h-43.77c-1.313 0-2.5-.76-3.04-1.935L489 253.807c-.778-1.677-.052-3.68 1.624-4.46s3.68-.05 4.458 1.625l16.78 36.132h41.627c1.85 0 3.353 1.503 3.353 3.352s-1.504 3.352-3.353 3.352h.018z" fill="#75a1de"/><path d="M562.67 280.6c-8.847-.12-17.625-5.408-21.98-4.63s-18.593 10.645-16.796 11.025 13.08-5.46 13.46-5.547 2.817 4.044 8.848 5.564.034-4.5 18.714 1.123c12.147 3.664-2.247-7.534-2.247-7.534z" class="H"/><g fill="#f2e5de"><path d="M634.918 219.16l1.296 10.472s-11.44.674-17.14 3.888c-5.685 3.197-14.1 12.46-14.1 12.46l6.878-11.82.985-7.568 22.083-7.43zm-4.872 12.822c-8.502-1.6-12.425 6.03-17.937 18.455-5.512 12.442-14.93 27.544-16.796 29.48-1.866 1.952-31.536 0-31.536 0s-.898 8.588 0 9.624c.9 1.02 6.03.9 6.03.9a72.8 72.8 0 0 0 3.974 2.938c1.918 1.296 18.196 3.732 25.765 3.352s14.48-1.02 15.517-2.177c1.02-1.158 21.67-32.953 22.948-44.358S634.4 232.813 630.06 232l-.017-.017z"/></g><g fill="#303c60"><path d="M604.972 179.676c-16.07.778-13.547 24.952-13.547 24.952s4.182 1.296 12.925-.155c-.674-2.592-.38-9.228-.38-9.228s1.02 5.4 2.316 8.657c1.85.847 3.94.104 7.5-.76 1.832 7.7 7 10.938 10.524 12.044 3.905 1.227 8.035 2.696 12.648.38s2.074-25.902-.38-30.637c-3.68-7.12-9.797-13.495-20.373-10.126-5.305 1.694-11.232 4.873-11.232 4.873z"/><path d="M632.93 208.412l6.567 9.608s-7.275 18.213 13.9 26.455c16.6 6.463 14.636 17.833 7.137 29.3-7.5 11.44 4.475 21.444 4.475 21.444s1.832-12.683 17.954-15.068c21.98-3.266 28.218-32.78 11.785-47.537-13.582-12.217-17.73-2.1-26.922-13.063-9.193-10.956-26.56-3.56-26.56-3.56l-6.36-9.28-2.005 1.728.017-.018z"/><path d="M702.345 262.308a.48.48 0 0 1-.277-.07c-.276-.155-.38-.518-.242-.795 5.53-10.108 1.02-22.343-1.244-25.66-.242-.346-.467-.7-.708-1.1-2.23-3.473-5.012-7.8-19.82-10.47-3.56-.64-6.446-2.765-9.504-5.012-6.308-4.63-13.46-9.884-29.013-2.73-.294.138-.64 0-.778-.294s0-.64.294-.777c16.174-7.448 23.62-1.97 30.205 2.85 2.938 2.16 5.72 4.2 9.02 4.804 15.3 2.747 18.23 7.326 20.58 11l.7 1.054c2.367 3.473 7.102 16.295 1.313 26.887a.58.58 0 0 1-.518.31zm-72.92-44.063c-1.055 0-2.195-.087-3.405-.277-5.633-.847-13.167-4.043-13.772-21.997a.58.58 0 0 1 .553-.605c.33 0 .588.242.605.57.242 7.396 1.7 12.874 4.372 16.278 2.022 2.575 4.683 4.043 8.398 4.596 5.2.778 8.657-.2 10.247-2.85a.59.59 0 0 1 .795-.207.59.59 0 0 1 .207.795c-1.47 2.454-4.164 3.68-8.018 3.68l.018.018z"/></g><g class="N"><path d="M410.712 426.07h4.32l16.813-128.476h-9.504L410.7 426.07zm146.603 0h-4.32L536.2 297.594h9.503l11.613 128.476z"/></g><path d="M702.137 399.528h31.76v-2.23h-31.76v2.23z" class="I"/><g class="K"><use xlink:href="#E"/><path d="M109.818 397.713h7.585a2.9 2.9 0 0 0 2.903-2.903v-6.238a2.9 2.9 0 0 0-2.903-2.903h-7.585a2.9 2.9 0 0 0-2.904 2.903v6.238a2.9 2.9 0 0 0 2.904 2.903zm-24.33 0h7.586a2.9 2.9 0 0 0 2.903-2.903v-6.238a2.9 2.9 0 0 0-2.903-2.903h-7.586a2.9 2.9 0 0 0-2.903 2.903v6.238a2.9 2.9 0 0 0 2.903 2.903zM777.58 173.386V165.8a2.9 2.9 0 0 0-2.903-2.903h-6.238a2.9 2.9 0 0 0-2.903 2.903v7.586a2.9 2.9 0 0 0 2.903 2.903h6.238a2.9 2.9 0 0 0 2.903-2.903z"/><use xlink:href="#F"/><path d="M777.58 222.012v-7.586a2.9 2.9 0 0 0-2.903-2.903h-6.238a2.9 2.9 0 0 0-2.903 2.903v7.586a2.9 2.9 0 0 0 2.903 2.903h6.238a2.9 2.9 0 0 0 2.903-2.903z"/></g></g><defs><clipPath id="A"><path d="M0 0h840v480H0z" class="I"/></clipPath><path id="B" d="M201.643 234.246h-81.37a1.66 1.66 0 0 1-1.659-1.659 1.66 1.66 0 0 1 1.659-1.659h81.37a1.66 1.66 0 0 1 1.659 1.659 1.66 1.66 0 0 1-1.659 1.659z"/><path id="C" d="M201.643 241.918h-81.37a1.66 1.66 0 0 1-1.659-1.659 1.66 1.66 0 0 1 1.659-1.659h81.37a1.66 1.66 0 0 1 1.659 1.659 1.67 1.67 0 0 1-1.659 1.659z"/><path id="D" d="M333.022 250.23H221.877c-1.244 0-2.263-1.02-2.263-2.264s1.02-2.264 2.263-2.264h111.145c1.244 0 2.263 1.02 2.263 2.264s-1.02 2.264-2.263 2.264z"/><path id="E" d="M134.13 397.713h7.586a2.9 2.9 0 0 0 2.903-2.903v-6.238a2.9 2.9 0 0 0-2.903-2.903h-7.586a2.9 2.9 0 0 0-2.903 2.903v6.238a2.9 2.9 0 0 0 2.903 2.903z"/><path id="F" d="M777.58 197.7v-7.586a2.9 2.9 0 0 0-2.903-2.903h-6.238a2.9 2.9 0 0 0-2.903 2.903v7.586a2.9 2.9 0 0 0 2.903 2.903h6.238a2.9 2.9 0 0 0 2.903-2.903z"/></defs></svg>